<?xml version="1.0" encoding="UTF-8"?>
<!DOCTYPE svg PUBLIC "-//W3C//DTD SVG 1.1//EN" "http://www.w3.org/Graphics/SVG/1.1/DTD/svg11.dtd">
<!-- Creator: CorelDRAW 2020 (64 Bit) -->
<svg xmlns="http://www.w3.org/2000/svg" xml:space="preserve" width="5416px" height="1184px" version="1.1" style="shape-rendering:geometricPrecision; text-rendering:geometricPrecision; image-rendering:optimizeQuality; fill-rule:evenodd; clip-rule:evenodd"
viewBox="0 0 5987.79 1309.07"
 xmlns:xlink="http://www.w3.org/1999/xlink"
 xmlns:xodm="http://www.corel.com/coreldraw/odm/2003">
 <defs>
  <style type="text/css">
   <![CDATA[
    .fil0 {fill:#ffffff;fill-rule:nonzero}
   ]]>
  </style>
 </defs>
 <g id="Camada_x0020_1">
  <metadata id="CorelCorpID_0Corel-Layer"/>
  <g id="_2272441455856">
   <path class="fil0" d="M654.54 0c-361.33,0 -654.54,293.21 -654.54,654.54 0,361.32 293.21,654.53 654.54,654.53 361.32,0 654.53,-293.21 654.53,-654.53l0 -608.36 0 -46.18 -654.53 0zm328.99 287.44l-380.94 0 0 310.53 290.9 0c33.48,0 62.34,26.55 62.34,61.19 0,35.78 -27.7,62.33 -62.34,62.33l-290.9 0 0 356.71c0,36.94 -27.7,65.8 -65.8,65.8 -36.94,0 -64.65,-30.02 -64.65,-65.8l0 -846.17c0,-36.94 31.17,-68.11 65.8,-68.11l445.59 0c33.48,0 62.34,26.56 62.34,61.19 0,35.78 -28.86,62.33 -62.34,62.33z"/>
   <path class="fil0" d="M1908.2 166.23c124.67,0 235.49,43.87 317.45,118.9 25.4,21.94 28.87,62.34 6.93,90.04 -25.4,27.71 -64.64,28.87 -91.2,6.93 -62.33,-55.41 -140.83,-91.2 -233.18,-91.2 -199.71,0 -354.4,163.93 -354.4,365.95 0,202.01 154.69,364.78 354.4,364.78 91.2,0 170.85,-35.79 233.18,-91.19 26.56,-21.94 66.96,-20.79 91.2,6.92 21.94,27.71 18.47,68.11 -6.93,90.04 -81.96,75.04 -192.78,118.91 -317.45,118.91 -270.13,0 -483.69,-219.34 -483.69,-490.62 0,-271.28 213.56,-489.46 483.69,-489.46z"/>
   <path class="fil0" d="M2365.33 632.6c-16.16,-26.55 -12.7,-60.02 13.86,-81.96 71.57,-61.18 159.3,-78.5 229.72,-78.5 184.7,0 295.52,92.36 295.52,271.28l0 83.12 0 249.35c0,34.63 -27.7,63.49 -63.49,63.49 -34.63,0 -61.18,-28.86 -61.18,-63.49l0 -26.55c-47.33,66.95 -146.61,96.97 -227.42,96.97 -146.6,0 -243.57,-75.04 -243.57,-200.87 0,-110.82 75.04,-203.17 277.05,-203.17 60.03,0 118.9,11.54 193.94,34.63l0 -33.48c0,-94.65 -64.65,-158.15 -180.09,-158.15 -50.79,0 -108.51,20.78 -152.37,56.57 -27.71,18.47 -65.8,15.01 -81.97,-9.24zm414.43 308.22l-1.16 -63.49c-68.11,-23.09 -152.38,-33.47 -192.78,-33.47 -132.75,0 -158.15,57.71 -158.15,101.58 0,48.49 40.41,88.89 126.98,88.89 66.96,0 174.31,-25.4 225.11,-93.51z"/>
   <path class="fil0" d="M3063.74 542.56c0,-34.63 27.7,-63.49 62.33,-63.49 35.79,0 63.49,28.86 63.49,63.49l0 40.41c34.64,-71.58 125.83,-106.21 178.94,-110.83 25.39,-1.15 48.48,0 70.41,4.62 81.96,12.7 138.53,57.72 168.54,129.29 60.03,-115.44 160.46,-132.75 223.95,-132.75 161.62,0 249.35,105.05 249.35,286.29l0 317.45c0,34.63 -27.7,63.49 -63.49,63.49 -34.63,0 -62.34,-28.86 -62.34,-63.49l0 -310.53c0,-106.2 -55.41,-172 -147.76,-172 -106.2,-1.16 -172,80.81 -172,188.16l0 292.06c0,34.63 -27.71,63.5 -63.49,63.5 -34.63,0 -62.34,-28.87 -62.34,-63.5l0 -309.37c0,-106.21 -55.41,-173.16 -139.68,-173.16 -90.04,0 -180.09,55.41 -180.09,191.63l0 292.06c0,34.63 -27.7,63.49 -63.49,63.49 -34.63,0 -62.33,-28.86 -62.33,-63.49l0 -533.33z"/>
   <path class="fil0" d="M4250.44 632.6c-16.16,-26.55 -12.7,-60.02 13.85,-81.96 71.58,-61.18 159.31,-78.5 229.73,-78.5 184.7,0 295.52,92.36 295.52,271.28l0 83.12 0 249.35c0,34.63 -27.7,63.49 -63.49,63.49 -34.63,0 -61.18,-28.86 -61.18,-63.49l0 -26.55c-47.33,66.95 -146.61,96.97 -227.41,96.97 -146.62,0 -243.58,-75.04 -243.58,-200.87 0,-110.82 75.04,-203.17 277.05,-203.17 60.03,0 118.9,11.54 193.94,34.63l0 -33.48c0,-94.65 -64.65,-158.15 -180.09,-158.15 -50.79,0 -108.51,20.78 -152.37,56.57 -27.71,18.47 -65.8,15.01 -81.97,-9.24zm414.43 308.22l-1.16 -63.49c-68.1,-23.09 -152.38,-33.47 -192.78,-33.47 -132.75,0 -158.15,57.71 -158.15,101.58 0,48.49 40.4,88.89 126.98,88.89 66.96,0 175.47,-25.4 225.11,-93.51z"/>
   <path class="fil0" d="M5252.45 592.2c-124.68,0 -177.78,132.76 -177.78,304.76l0 178.93c0,34.63 -27.7,63.49 -63.49,63.49 -34.63,0 -62.33,-28.86 -62.33,-63.49l0 -533.33c0,-34.63 27.7,-63.49 62.33,-63.49 35.79,0 63.49,28.86 63.49,63.49l0 88.89c33.48,-113.13 95.82,-159.31 180.09,-159.31 47.33,0 124.67,9.24 113.13,77.35 -6.93,40.4 -42.71,48.48 -87.73,43.87 -9.24,-1.16 -19.63,-1.16 -27.71,-1.16z"/>
   <path class="fil0" d="M5447.54 632.6c-16.16,-26.55 -12.7,-60.02 13.85,-81.96 71.58,-61.18 159.31,-78.5 229.73,-78.5 184.7,0 295.52,92.36 295.52,271.28l0 83.12 0 249.35c0,34.63 -27.71,63.49 -63.49,63.49 -34.64,0 -61.19,-28.86 -61.19,-63.49l0 -26.55c-47.32,66.95 -146.6,96.97 -227.41,96.97 -146.6,0 -243.57,-75.04 -243.57,-200.87 0,-110.82 75.03,-203.17 277.05,-203.17 60.03,0 118.9,11.54 193.93,34.63l0 -33.48c0,-94.65 -64.64,-158.15 -180.08,-158.15 -50.79,0 -108.51,20.78 -152.38,56.57 -27.7,18.47 -65.8,15.01 -81.96,-9.24zm414.42 308.22l-1.15 -63.49c-68.11,-23.09 -152.38,-33.47 -192.78,-33.47 -132.75,0 -158.15,57.71 -158.15,101.58 0,48.49 40.4,88.89 126.98,88.89 66.96,0 174.31,-25.4 225.1,-93.51z"/>
   <path class="fil0" d="M4455.92 303.6c-26.55,26.55 -56.56,39.25 -91.19,39.25 -21.93,0 -41.56,-4.62 -61.18,-12.7 -18.47,-8.08 -35.79,-20.77 -49.64,-35.78 -13.85,-15.01 -25.4,-32.32 -33.48,-53.1 -8.08,-20.78 -12.7,-42.72 -12.7,-65.8 0,-21.94 4.62,-43.87 12.7,-63.49 8.08,-19.63 19.63,-36.95 33.48,-51.95 13.85,-15.01 31.17,-26.55 50.79,-35.79 19.63,-9.23 40.4,-12.7 63.49,-12.7 31.17,0 57.72,6.93 79.65,19.63 21.94,12.7 38.1,30.01 49.64,51.94l-47.33 34.64c-8.08,-16.16 -19.62,-28.86 -34.63,-36.94 -15.01,-8.08 -31.17,-12.7 -48.48,-12.7 -13.86,0 -26.56,3.46 -38.1,9.23 -11.54,5.77 -21.93,13.86 -30.01,24.25 -8.08,10.39 -15.01,21.93 -18.47,34.63 -3.46,12.7 -6.93,27.71 -6.93,41.56 0,15 2.31,30.01 6.93,42.71 4.62,13.85 11.54,25.39 20.78,34.63 8.08,10.39 18.47,17.31 31.16,23.09 11.55,5.77 24.25,8.08 38.1,8.08 31.17,0 60.03,-15.01 85.42,-45.02l0 -23.09 -65.79 0 0 -46.18 118.89 0 0 168.55 -53.1 0 0 -36.95z"/>
   <path class="fil0" d="M4608.3 340.54l0 -327.84 145.45 0c15.01,0 28.87,3.46 41.56,9.23 12.7,5.78 24.25,15.01 33.48,25.4 9.23,10.39 16.16,21.93 21.93,34.63 5.77,12.7 8.09,26.55 8.09,39.25 0,20.78 -5.78,40.41 -16.17,57.72 -10.39,17.32 -25.39,30.01 -42.71,38.09l75.04 123.52 -72.73 0 -66.95 -109.66 -62.34 0 0 109.66 -64.65 0zm64.65 -165.07l79.65 0c5.77,0 11.55,-1.16 16.16,-4.62 4.62,-2.31 9.24,-6.93 12.7,-11.55 3.46,-4.61 6.93,-10.38 9.24,-17.31 2.3,-6.93 3.46,-13.85 3.46,-20.78 0,-8.08 -1.16,-15.01 -3.46,-20.78 -2.31,-6.93 -5.78,-11.54 -10.39,-17.31 -4.62,-4.62 -9.24,-8.09 -13.86,-11.55 -5.77,-2.31 -10.38,-3.46 -16.16,-3.46l-77.34 0 0 107.36z"/>
   <path class="fil0" d="M5100.07 286.29c15.01,0 27.71,-3.47 38.09,-9.24 10.4,-5.77 18.48,-13.85 25.4,-24.24 6.93,-10.39 10.39,-20.78 13.85,-33.48 3.47,-12.69 3.47,-25.39 3.47,-39.25l0 -167.38 63.49 0 0 167.38c0,21.94 -2.31,43.87 -8.08,63.49 -5.77,19.63 -13.86,36.95 -25.4,51.95 -11.54,15.01 -26.55,26.55 -45.02,34.63 -18.47,8.09 -40.4,12.7 -64.64,12.7 -26.56,0 -48.49,-4.61 -66.96,-13.85 -18.47,-9.23 -33.48,-20.78 -45.02,-35.78 -11.54,-15.01 -19.62,-32.33 -24.24,-51.95 -4.62,-19.63 -8.08,-40.41 -8.08,-61.19l0 -167.38 63.49 0 0 167.38c0,13.86 1.15,27.71 3.46,40.41 2.31,12.7 6.93,24.24 13.86,33.48 6.92,9.23 15,17.31 24.24,24.24 11.54,5.77 24.24,8.08 38.09,8.08z"/>
   <path class="fil0" d="M5354.04 340.54l0 -327.84 138.52 0c15.01,0 28.86,3.46 41.56,9.23 12.7,5.78 24.24,15.01 33.48,25.4 9.23,10.39 16.16,21.93 21.93,34.63 5.77,12.7 8.08,26.55 8.08,39.25 0,13.85 -2.31,27.71 -6.93,40.41 -4.61,12.69 -11.54,24.24 -20.78,34.63 -9.23,10.39 -19.62,18.47 -32.32,24.24 -12.7,5.77 -26.55,9.23 -41.55,9.23l-77.35 0 0 109.67 -64.64 1.15zm64.64 -165.07l73.88 0c11.55,0 21.94,-4.62 28.86,-13.85 6.93,-9.24 11.54,-21.94 11.54,-39.25 0,-8.09 -1.15,-16.17 -3.46,-21.94 -2.31,-6.93 -5.77,-12.7 -9.23,-17.31 -3.47,-4.62 -9.24,-8.09 -13.86,-10.39 -4.61,-2.31 -11.54,-3.47 -17.31,-3.47l-71.57 0 1.15 106.21z"/>
   <path class="fil0" d="M5828.49 342.85c-24.24,0 -46.18,-4.61 -65.8,-13.85 -19.63,-9.23 -35.79,-21.93 -50.79,-36.94 -13.86,-15.01 -25.4,-33.48 -32.33,-53.1 -8.08,-19.63 -11.54,-40.41 -11.54,-61.18 0,-21.94 4.62,-42.72 12.7,-62.34 8.08,-19.63 19.62,-38.1 33.47,-53.1 13.86,-15.01 31.17,-27.71 50.8,-36.94 19.62,-9.24 41.55,-13.86 64.64,-13.86 24.25,0 45.03,4.62 64.65,15.01 19.62,9.24 35.78,21.93 49.64,38.1 13.85,16.16 24.24,33.48 32.32,53.1 8.08,19.62 11.54,40.4 11.54,61.18 0,21.93 -3.46,42.71 -11.54,62.34 -8.08,19.62 -19.63,36.94 -33.48,53.1 -13.85,15.01 -31.17,27.7 -50.79,36.94 -19.63,6.93 -40.41,11.54 -63.49,11.54zm-95.82 -166.23c0,13.85 2.31,27.71 6.93,41.56 4.62,12.7 10.39,25.4 18.47,34.63 8.08,10.39 18.47,18.47 30.02,24.24 11.54,5.78 25.39,9.24 40.4,9.24 15,0 28.86,-3.46 40.4,-9.24 11.55,-5.77 21.93,-15 30.02,-25.4 8.08,-10.38 13.85,-21.93 18.46,-35.78 4.62,-12.7 5.77,-26.55 5.77,-40.4 0,-13.86 -2.3,-27.71 -6.92,-41.56 -4.62,-12.7 -10.39,-25.4 -18.47,-34.63 -8.08,-9.24 -18.47,-18.47 -30.01,-24.25 -11.55,-5.77 -25.4,-9.23 -40.41,-9.23 -15,0 -28.86,3.46 -41.55,9.23 -11.55,5.78 -21.94,15.01 -30.02,25.4 -8.08,10.39 -13.85,21.93 -18.47,34.63 -2.31,15.01 -4.62,27.71 -4.62,41.56z"/>
  </g>
 </g>
</svg>
